<?xml version="1.0" encoding="utf-8"?>
<!-- Generator: Adobe Illustrator 16.0.0, SVG Export Plug-In . SVG Version: 6.00 Build 0)  -->
<!DOCTYPE svg PUBLIC "-//W3C//DTD SVG 1.0//EN" "http://www.w3.org/TR/2001/REC-SVG-20010904/DTD/svg10.dtd">
<svg version="1.0" id="All_glyphs" xmlns="http://www.w3.org/2000/svg" xmlns:xlink="http://www.w3.org/1999/xlink" x="0px" y="0px"
	 width="258px" height="16px" viewBox="0 0 258 16" enable-background="new 0 0 258 16" xml:space="preserve">
<path fill="#666D89" d="M8.777,3.434H6.556C6.293,3.434,6,3.779,6,4.242v1.604h2.777v2.286H6V15H3.378V8.133H1V5.847h2.378V4.5
	c0-1.93,1.339-3.5,3.178-3.5h2.222V3.434z"/>
<path fill="#666D89" d="M68.521,4.49c0,1.188,0.396,2.047,1.178,2.55c0.641,0.413,1.385,0.475,1.771,0.475
	c0.094,0,0.169-0.003,0.222-0.007c0,0-0.123,0.799,0.469,1.588h-0.026c-1.026,0-4.37,0.214-4.37,2.964
	c0,2.798,3.071,2.939,3.688,2.939c0.047,0,0.076-0.001,0.076-0.001C71.535,14.999,71.58,15,71.654,15
	c0.396,0,1.418-0.05,2.367-0.511c1.232-0.598,1.856-1.638,1.856-3.09c0-1.404-0.951-2.24-1.646-2.852
	c-0.424-0.372-0.791-0.693-0.791-1.005c0-0.318,0.269-0.559,0.606-0.861c0.549-0.49,1.064-1.188,1.064-2.506
	c0-1.16-0.15-1.938-1.076-2.432c0.097-0.05,0.438-0.086,0.606-0.108c0.503-0.069,1.236-0.146,1.236-0.558V1H72.22
	C72.184,1.001,68.521,1.137,68.521,4.49z M74.426,11.66c0.07,1.119-0.887,1.944-2.323,2.049c-1.46,0.106-2.661-0.55-2.732-1.668
	c-0.033-0.536,0.203-1.063,0.665-1.482c0.469-0.425,1.112-0.686,1.813-0.737c0.082-0.006,0.165-0.009,0.246-0.009
	C73.444,9.813,74.359,10.606,74.426,11.66z M73.471,3.725c0.358,1.263-0.184,2.583-1.046,2.825c-0.1,0.028-0.202,0.043-0.307,0.043
	c-0.791,0-1.575-0.801-1.864-1.903c-0.164-0.618-0.149-1.16,0.036-1.681c0.184-0.512,0.512-0.858,0.925-0.975
	c0.1-0.027,0.203-0.043,0.307-0.043C72.476,1.991,73.091,2.389,73.471,3.725z M79.634,6.475V4.088h-1.511v2.387h-2.386v1.512h2.386
	v2.386h1.511V7.986h2.387V6.475H79.634z"/>
<path fill="#666D89" d="M153.51,2.657c-0.635,0.281-1.314,0.471-2.029,0.557c0.729-0.438,1.289-1.131,1.553-1.955
	c-0.682,0.404-1.439,0.698-2.244,0.856C150.145,1.429,149.227,1,148.209,1c-1.951,0-3.533,1.581-3.533,3.534
	c0,0.276,0.031,0.547,0.09,0.806c-2.936-0.148-5.541-1.556-7.285-3.693c-0.303,0.521-0.477,1.13-0.477,1.777
	c0,1.226,0.623,2.308,1.57,2.941c-0.578-0.019-1.125-0.178-1.6-0.441c0,0.014,0,0.028,0,0.044c0,1.713,1.219,3.142,2.834,3.466
	c-0.297,0.081-0.609,0.124-0.932,0.124c-0.227,0-0.447-0.021-0.664-0.063c0.449,1.404,1.756,2.426,3.301,2.455
	c-1.209,0.948-2.732,1.513-4.389,1.513c-0.285,0-0.566-0.017-0.844-0.051c1.564,1.004,3.422,1.589,5.42,1.589
	c6.5,0,10.055-5.386,10.055-10.056c0-0.154-0.002-0.307-0.01-0.458C152.438,3.988,153.037,3.366,153.51,2.657z"/>
<g>
	<path fill="#666D89" d="M211.016,2.519c0,0.839-0.619,1.517-1.639,1.517c-0.959,0-1.576-0.678-1.576-1.517
		c0-0.859,0.639-1.519,1.617-1.519S210.996,1.659,211.016,2.519z M207.881,15V5.233h3.035V15H207.881z"/>
	<path fill="#666D89" d="M212.732,8.35c0-1.218-0.041-2.236-0.08-3.116h2.637l0.141,1.359h0.059c0.398-0.64,1.377-1.579,3.016-1.579
		c1.996,0,3.494,1.338,3.494,4.215V15h-3.035V9.588c0-1.258-0.439-2.117-1.537-2.117c-0.84,0-1.338,0.579-1.559,1.139
		c-0.08,0.2-0.1,0.479-0.1,0.759V15h-3.035V8.35z"/>
</g>
<path fill="#FFFFFF" d="M43.779,3.434h-2.221c-0.264,0-0.557,0.346-0.557,0.809v1.604h2.777v2.286h-2.777V15h-2.621V8.133h-2.379
	V5.847h2.379V4.5c0-1.93,1.338-3.5,3.178-3.5h2.221V3.434z"/>
<path fill="#FFFFFF" d="M103.523,4.49c0,1.188,0.396,2.047,1.178,2.55c0.641,0.413,1.385,0.475,1.771,0.475
	c0.094,0,0.168-0.003,0.221-0.007c0,0-0.123,0.799,0.469,1.588h-0.025c-1.027,0-4.371,0.214-4.371,2.964
	c0,2.798,3.072,2.939,3.689,2.939c0.047,0,0.076-0.001,0.076-0.001c0.006,0.001,0.051,0.002,0.125,0.002
	c0.396,0,1.418-0.05,2.367-0.511c1.232-0.598,1.855-1.638,1.855-3.09c0-1.404-0.951-2.24-1.646-2.852
	c-0.424-0.372-0.791-0.693-0.791-1.005c0-0.318,0.27-0.559,0.607-0.861c0.549-0.49,1.064-1.188,1.064-2.506
	c0-1.16-0.15-1.938-1.076-2.432c0.096-0.05,0.438-0.086,0.605-0.108c0.504-0.069,1.236-0.146,1.236-0.558V1h-3.658
	C107.186,1.001,103.523,1.137,103.523,4.49z M109.428,11.66c0.07,1.119-0.887,1.944-2.324,2.049c-1.459,0.106-2.66-0.55-2.732-1.668
	c-0.033-0.536,0.203-1.063,0.666-1.482c0.469-0.425,1.111-0.686,1.813-0.737c0.082-0.006,0.164-0.009,0.246-0.009
	C108.445,9.813,109.361,10.606,109.428,11.66z M108.473,3.725c0.357,1.263-0.184,2.583-1.047,2.825
	c-0.1,0.028-0.201,0.043-0.307,0.043c-0.791,0-1.574-0.801-1.863-1.903c-0.164-0.618-0.15-1.16,0.035-1.681
	c0.184-0.512,0.512-0.858,0.926-0.975c0.1-0.027,0.203-0.043,0.307-0.043C107.477,1.991,108.092,2.389,108.473,3.725z
	 M114.635,6.475V4.088h-1.51v2.387h-2.387v1.512h2.387v2.386h1.51V7.986h2.387V6.475H114.635z"/>
<path fill="#FFFFFF" d="M188.512,2.657c-0.635,0.281-1.315,0.471-2.03,0.557c0.729-0.438,1.29-1.131,1.554-1.955
	c-0.683,0.404-1.439,0.698-2.244,0.856C185.146,1.429,184.228,1,183.211,1c-1.952,0-3.534,1.581-3.534,3.534
	c0,0.276,0.031,0.547,0.091,0.806c-2.937-0.148-5.542-1.556-7.285-3.693c-0.304,0.521-0.478,1.13-0.478,1.777
	c0,1.226,0.623,2.308,1.571,2.941c-0.579-0.019-1.125-0.178-1.601-0.441c0,0.014,0,0.028,0,0.044c0,1.713,1.219,3.142,2.835,3.466
	c-0.297,0.081-0.609,0.124-0.932,0.124c-0.227,0-0.448-0.021-0.664-0.063c0.449,1.404,1.756,2.426,3.301,2.455
	c-1.209,0.948-2.732,1.513-4.389,1.513c-0.286,0-0.567-0.017-0.844-0.051c1.563,1.004,3.422,1.589,5.419,1.589
	c6.5,0,10.056-5.386,10.056-10.056c0-0.154-0.003-0.307-0.011-0.458C187.438,3.988,188.038,3.366,188.512,2.657z"/>
<g>
	<path fill="#FFFFFF" d="M246.019,2.519c0,0.839-0.619,1.517-1.639,1.517c-0.959,0-1.577-0.678-1.577-1.517
		c0-0.859,0.64-1.519,1.617-1.519C245.399,1,245.998,1.659,246.019,2.519z M242.883,15V5.233h3.035V15H242.883z"/>
	<path fill="#FFFFFF" d="M247.734,8.35c0-1.218-0.04-2.236-0.079-3.116h2.636l0.141,1.359h0.059c0.399-0.64,1.378-1.579,3.017-1.579
		c1.996,0,3.493,1.338,3.493,4.215V15h-3.035V9.588c0-1.258-0.438-2.117-1.537-2.117c-0.839,0-1.338,0.579-1.558,1.139
		c-0.08,0.2-0.101,0.479-0.101,0.759V15h-3.035V8.35z"/>
</g>
</svg>
